<svg xmlns="http://www.w3.org/2000/svg" viewBox="0 0 1014.75 315"><defs><style>.cls-1{fill:#292929;}.cls-2{fill:#010101;}.cls-3{fill:#fefefe;}.cls-4{fill:#242424;}.cls-5{fill:#e07728;}.cls-6{fill:#df7628;}.cls-7{fill:#ae0e0b;}.cls-8{fill:#ab0e0c;}.cls-9{fill:#aa0f0c;}.cls-10{fill:#ac0e0c;}.cls-11{fill:#ac0e0b;}.cls-12{fill:#de7628;}.cls-13{fill:#ad0e0b;}.cls-14{fill:#a90f0c;}.cls-15{fill:#a70f0d;}.cls-16{fill:#b00d0b;}.cls-17{fill:#d87428;}.cls-18{fill:#4c2221;}.cls-19{fill:#141414;}.cls-20{fill:#2c2828;}.cls-21{fill:#352626;}.cls-22{fill:#3f2424;}.cls-23{fill:#412423;}.cls-24{fill:#432323;}.cls-25{fill:#2b2828;}.cls-26{fill:#3b2525;}.cls-27{fill:#392625;}.cls-28{fill:#731a18;}</style></defs><g id="Layer_2" data-name="Layer 2"><g id="Layer_1-2" data-name="Layer 1"><path class="cls-1" d="M0,175.08V0H1014.75V314.24H64.09c-1.87,0-3.74-.05-5.61-.08-1.39-1-2.72-2-4.18-2.89-1.66-1-3.43-1.75-5.5-2.78,3.13-2.72,3.1-2.72,2-5.87-.27-.79-.67-2.23-.39-2.42,3-1.91,1-4.36.71-6.75l4.73-2.25q14.55-6.85,29.1-13.71c2.34-1.11,4.3-1.51,6.86.14,5.65,3.63,11.72,2.53,17.58.22.62-.24,1.24-2.12.93-2.82-3.12-7.06-6.35-14.07-9.79-21-.4-.81-2.67-1.63-3.36-1.22-6,3.5-10.74,8-11.08,15.68a5.17,5.17,0,0,1-2.46,3.53c-4.28,2.28-8.75,4.23-13.16,6.27-7,3.23-14,6.44-20.94,9.62-1-1.05-1.7-2.55-2.62-2.69a3.65,3.65,0,0,1-3.21-4.62c.53-2.22,2-5,3.9-6,8.3-4.26,16.91-7.93,25.39-11.85a25.09,25.09,0,0,0,2.56-1.57l-.43-.93c-1.68.6-3.39,1.15-5.05,1.81-2.87,1.15-5.72,2.36-8.57,3.55l-.07-.09a36.76,36.76,0,0,1,4-2.59c3.89-1.87,7.85-3.6,11.78-5.39l.13-1.29c-1.12-.25-2.49-1.05-3.31-.67-9.12,4.28-18.15,8.77-27.22,13.15-1.28.62-2.66,1-4,1.53l-.34-.79L73,255.14l-.52-1.21a19.27,19.27,0,0,0-2.51.79Q57.2,260.63,44.51,266.6c-4.13,1.95-5.35,1.46-6.83-3-1.15-3.42-2.36-6.82-3.34-10.29a36.49,36.49,0,0,1-.68-5.47l6.29-.5c-.29-5.29-8-4.11-7.62-9.9l5.46-.64c-.15-4.53-7.86-4.26-5.95-9.87l4.48-.57c-.1-4.54-7.86-4.26-5.95-9.88l5.2-.7L33.9,202.76l18.74-1.58,1.46,6,1.38-.12,1.27-5.49.58.07,1.21,8.9c4.83-2.72.2-7.27,3.16-9.86l1.45,5.73,1.36-.1c.24-1.1.43-2.21.74-3.29s.7-2,1-3a13,13,0,0,1,3.17,1.31c4.87,3.73,10.42,5.61,16.4,4.87,1.76-.22,4.37-3,4.53-4.72.35-3.86-.52-7.86-1.08-11.77-.65-4.64-3.44-6.53-7.93-5.46-4.94,1.19-9.4,3.22-12.78,7.24a13.9,13.9,0,0,1-3.2,2.19L63,188.37l-1.13.43-.78,4.64-.65-.05c-.48-2.82-1-5.65-1.43-8.47l-1.51-.25a21.33,21.33,0,0,0-1.14,4.13,25.88,25.88,0,0,0,.4,4.61l-.86.1-2-4.27-1,.11c-.24,1.59-.49,3.18-.78,5.06L32.23,196c0-2.31,0-4,0-5.75,0-7.92-1.31-9.08-9.43-9.2a33.92,33.92,0,0,1-8.79-1C9.25,178.73,4.66,176.78,0,175.08Zm502.51-69.6c-.75-.68-1.82-1.23-2.19-2.08a13.3,13.3,0,0,1-.5-3.62h-1.08c-.36,2.1-.73,4.2-1.09,6.3l-.82-.78c-1.61,1.3-4.27,2.37-4.61,3.94-.7,3.22,2.47,3.2,4.73,3.87,1,.29,2.31,1.47,2.38,2.33.38,4.56.44,9.16.55,13.74.1,4.09-.1,8.2.3,12.26a5.15,5.15,0,0,0,2.8,3.4c2.62,1.1,5.52,1.49,8.26,2.31s4.59-.12,5.28-3-.74-4-3.53-4.29c-3.17-.3-5.28-1.78-5.47-5.41-.23-4.45-1-8.88-1.19-13.34-.35-7.76,0-8,7.63-8.16,1.13,0,3.13-.4,3.23-.89a14.11,14.11,0,0,0-.08-5.86c-.12-.48-2.42-.62-3.72-.6-5.51,0-6.5-1-6.37-6.58a3.27,3.27,0,0,0-2-2.44c-1.32-.31-2.83.19-4.25.35l-.17,1,4.42,1.84c-.82,1.85-1.69,3.81-2.57,5.77Zm111,37.34.42,1.91c.85,3.25,3.75,2.92,6,3,.49,0,1.41-2.73,1.49-4.23.21-3.86.17-7.73,0-11.59-.08-2.56.8-3.36,3.47-3.43,4.7-.11,9.56-.18,14.05-1.38,10.41-2.79,15.69-17.6,9.91-26.68-4.62-7.27-11.18-10.59-19.82-9.91-4.46.35-8.93.57-13.39.73-2.24.08-3,1.09-3.1,3.26-.07,2.69-.15,5.33,0,8.07C613.45,116,613.35,129.39,613.55,142.82ZM182.31,114.53a22.11,22.11,0,0,0-1.32-2.78c-4.06-5.83-8.23-11.59-12.21-17.47a6.32,6.32,0,0,0-6-3c-11.63.11-23.25,0-34.88,0-6,0-7.89,1.94-7.89,7.8,0,28.06,0,56.12-.07,84.18,0,3.3.67,4.46,4.28,4.45q74.25-.19,148.5,0c3.45,0,4.09-1.09,4.07-4.25-.13-21.45-.06-42.9-.07-64.34,0-7.11.07-14.22-.07-21.33-.09-4.37-2.2-6.45-6.53-6.48-13.12-.08-26.25-.1-39.37.08-1.4,0-3.57,1.24-4,2.44-5.23,13.31-10.2,26.74-15.4,40.58,4.64,1.59,9.14,3,13.52,4.71,1.31.51,3.07,1.83,3.19,2.94s-1.2,2.86-2.35,3.69c-4.16,3-8.27,6.18-12.83,8.4-9.37,4.55-14,11.22-11.74,21.81a2.09,2.09,0,0,1,0,1.11c-.49,1.3-.75,3.25-1.67,3.67s-3-.09-4-.87a150.26,150.26,0,0,1-12.79-10.36,7,7,0,0,1-1.72-5.49c1.2-6.85,2.79-13.65,4.48-20.4a6,6,0,0,0-1.52-6.09c-5.77-6.38-11.47-12.83-17-19.41-.85-1-1.46-3.25-.91-4.12s2.73-1.59,4.11-1.46C173.88,113,177.67,113.78,182.31,114.53Zm16.06,79.16H180.74c-19,0-38,0-57,0-1.2,0-3.12.36-3.48,1.12-3.38,7.19.92,13.89,8.76,13.89H266.26c9.18,0,10.51-1.36,10.49-10.65a2.29,2.29,0,0,1,0-.37c.6-3.38-.92-4.12-4.16-4.11C247.86,193.75,223.11,193.69,198.37,193.69Zm264.37-86.91-.05-.92c-1.92.3-4.17,1.41-5.68.77-5.32-2.24-10.37-.64-15.37.5-7.52,1.71-15.58,12.65-7.47,20.54,2.12,2.07,2.15,4.58,1.28,7.28-.49,1.51-1.44,3.64-.82,4.6,1.8,2.75.05,4.3-1.17,6.24-4,6.38-3.26,11.47,2.09,15a28.47,28.47,0,0,0,33.36-1.63c2.9-2.38,4.32-6.61,2.51-8.85-3.33-4.12-7.36-7.22-12.89-8.21-4.37-.77-8.63-2.19-12.94-3.32l.21-1.16c1.57-.22,3.14-.49,4.72-.65,9.76-1,13.83-5.27,13.53-15-.1-3.36-1.21-6.69-1.9-10.24a34.21,34.21,0,0,0,4.84-.48c.62-.15,1-1.14,1.55-1.75a11.89,11.89,0,0,0-1.87-1.24C465.39,107.67,464.05,107.25,462.74,106.78Zm-105,39.54c9.76-.87,18.88-2,28-2.4,9.79-.44,15.31-5.54,18.7-14.29,4.8-12.39,1.53-29.18-13.34-35.62-10.26-4.45-20.53-2.3-30.86-1.23-.66.07-1.62,1.46-1.69,2.29-.41,4.82-.75,9.66-.8,14.49-.12,10.7,0,21.4,0,32.11Zm477.66-17.95c-.11-12.54-9.78-24-20.4-23.56a21.36,21.36,0,0,0-20.34,20.69c-.55,13.49,8.14,21,17.94,21.67C826,148.08,835.48,139.52,835.38,128.37Zm-140.21-.3c-.11-12.27-9.75-23.53-20.25-23.3-10.8.24-19.88,10.13-20.4,19.94-.76,14.37,8.14,21.89,18.2,22.46C686.23,147.94,695.27,139.47,695.17,128.07Zm232.5-.13c-.13-12.24-9.86-23.48-20.38-23.16-10.87.32-19.86,10.38-20.27,20.06-.62,14.59,8.24,21.65,18,22.32C918.63,148.09,927.79,139.52,927.67,127.94Zm-374.13-7.36c-.31-3.52,0-7.59-3.79-10.67-5.51-4.53-11.84-3.76-18-3.09-3.89.42-5.56,3.5-4.25,6.75,1.55,3.87,4.14,1.34,6.22.59,3-1.12,6.11-2.16,8.64.65a6.23,6.23,0,0,1,1.39,4.32c-.09.8-1.9,1.7-3.08,2-3.23.93-6.68,1.23-9.76,2.48-2.39,1-5.21,2.53-6.33,4.63-2.23,4.16-2.86,9,.82,12.91,3.88,4.09,8.89,6.53,14.5,4.65,4.89-1.65,9.29-3.41,14,.17,1.73,1.3,3.72.86,4.47-1.49s.41-4.27-2.47-4.79c-2.54-.46-3.53-2-3.34-4.5C552.94,130.53,553.2,125.82,553.54,120.58ZM165.29,244.66h4.26q28.83,0,57.66,0c1.4,0,3.95-.36,4-.76.18-1.74.25-4.2-.79-5.2a10.37,10.37,0,0,0-6.31-2.9c-17.09-.23-34.19-.16-51.29-.11C166.91,235.68,164.85,238.07,165.29,244.66Zm612.64-99c0-8.83.33-17.51-.13-26.16-.27-5.14.49-6.7,5.54-6.52a4.79,4.79,0,0,0,1.85,0c1.27-.51,3.49-1.21,3.49-1.84,0-2.23-.06-4.74-3.59-4.9-5.55-.24-5.47-.41-5.35-5.85.08-3.28,1.26-5.25,4.68-6.19,1.25-.35,2.36-2.45,2.8-4a3.58,3.58,0,0,0-1.59-3.16c-5.88-2.3-14,2.79-14.57,9.08-.21,2.2.27,4.48,0,6.64-.18,1.19-1.36,3.15-2.13,3.17-5.47.18-3.53,3.77-3.58,6.55,4.91,1,4.92,1,5.09,6.18.18,5.67.38,11.33.52,17a6.47,6.47,0,0,1-.35,2.18C768.53,143.82,770.54,146.25,777.93,145.66Zm-72.85-38.85c0,11.8,0,22.87,0,33.93,0,6,.25,6.16,6.21,5.93a8.53,8.53,0,0,1,1.13,0c2.57.21,3.75-1.1,3.61-3.53-.24-4-.43-7.94-1-11.86-1.29-9,1.55-14,10.12-17.26.84-.32,2.08-.93,2.19-1.57.45-2.63.54-5.33.87-9.34l-12.68,5.4C712.55,105.62,708.92,107.52,705.08,106.81Zm38.5-1.25c-.24-2.15-.43-3.9-.62-5.65l-1-.07c-.42,2-.84,4.09-1.27,6.13l-.63-.69c-1.67,1.29-4.47,2.35-4.79,3.91-.72,3.51,2.69,3.28,5,4,.87.25,2.07,1.33,2.11,2.09.29,5.19.27,10.39.42,15.58.11,3.71.17,7.43.62,11.1a4.34,4.34,0,0,0,2.4,2.91c2.9,1.07,6,1.67,9,2.46s4.21-.75,4.75-3.29-.41-3.93-3.25-4.09c-3.33-.19-5.63-1.65-5.77-5.49-.16-4.58-.39-9.17-.91-13.72-.78-6.73-.09-7.67,6.59-7.69a8.34,8.34,0,0,1,1.12,0c2.79.37,3.69-.84,3.73-3.6,0-3.08-.91-4.17-4.12-3.93-5.47.42-6.88-.73-7-4.77-.11-4.71-1.31-5.39-6.48-2.94l4.21,1.77C747.39,102,747.61,104.93,743.58,105.56ZM182.85,229.35H214l-4.22-14.71c-7,0-14.4,0-21.75.07a2.73,2.73,0,0,0-2,1.58C184.9,220.55,183.93,224.88,182.85,229.35ZM575.55,85.62c-1,.2-1.88.37-2.73.51-2.93.51-5.35,1-5.26,5.14.33,15.3.26,30.61.52,45.91a9.3,9.3,0,0,0,1.89,5.19c2.25,2.88,4.88,6,9.06,4.84,1.48-.41,2.46-2.81,3.42-4.45a4.76,4.76,0,0,0-2.37-2c-3.11-.58-4.8-2.64-4.83-5.38-.11-8.8.21-17.61.29-26.42C575.6,101.31,575.55,93.61,575.55,85.62Zm278.25,0c-1,.2-1.89.37-2.74.51-2.93.51-5.34,1.05-5.25,5.15.33,15.3.26,30.6.52,45.9a9.34,9.34,0,0,0,1.89,5.19c2.25,2.88,4.89,6,9.07,4.84,1.48-.41,2.45-2.82,3.41-4.46a4.78,4.78,0,0,0-2.38-1.95c-3.11-.59-4.79-2.64-4.82-5.39-.11-8.8.21-17.61.29-26.41C853.85,101.3,853.8,93.6,853.8,85.62Zm24.7,60c.39-11.17.8-22,1.08-32.93,0-1.3-.28-3-1.13-3.84-1.31-1.22-3.22-2.41-4.89-2.42-1.16,0-2.51,1.87-3.42,3.16a5.51,5.51,0,0,0-.71,3.23c.41,9.18.7,18.37,1.47,27.52C871.31,145.14,873.29,146.2,878.5,145.63Zm-456.67-.16c.07-.9.19-1.86.19-2.83q.08-9.07.09-18.15c0-4.69.23-9.39-.12-14-.21-2.76-2.22-4.35-5.21-4.22a4.08,4.08,0,0,0-4.07,4.49c.19,10,.35,20,1.2,30C414.32,145.48,416.58,146.4,421.83,145.47Zm60.78,0c.37-10.49.84-21,1.07-31.5.12-5-1.85-7.69-5.08-7.78s-5.2,2.06-5.09,7.58c.17,8.92.71,17.83,1.46,26.72C475.36,145.12,477.63,146.34,482.61,145.5Zm157.07,73.89-1.18,1.13c0,6.7-.09,13.41.08,20.11,0,1.1,1.14,2.18,1.76,3.26.54-1.14,1.51-2.27,1.56-3.44.18-4.62.08-9.24.08-13.86,4.16,4.89,7.51,10,11,14.9.75,1,2.2,1.6,3.34,2.37.4-1.16,1.12-2.31,1.14-3.48.12-5.72.15-11.45,0-17.17,0-1.09-1.17-2.15-1.8-3.22-.53,1-1.48,2.07-1.52,3.13-.18,4.47-.08,8.95-.08,13.44-3.94-4.66-6.94-9.51-10.25-14.16C642.89,221.08,641.09,220.38,639.68,219.39Zm-139,11.37c3.22-5.77,1.8-10.15-3.65-10.7a89.31,89.31,0,0,0-9-.06v23.93h9.22c3.47,0,6.1-1.52,7.22-4.83S504.25,233,500.67,230.76Zm340.74,12.63-4.9-9.61c3.3-2.17,5.08-5.25,3.67-8.68a9.25,9.25,0,0,0-5.46-4.8c-3.12-.82-6.61-.21-10.39-.21,0,7.48,0,14.67.07,21.86,0,.66,1,1.3,1.58,2,.63-.69,1.74-1.34,1.81-2.08.24-2.42.09-4.88.09-7.15,3.37-1,5.36-.34,6.38,2.65.53,1.52,1.51,2.87,2.13,4.36C837.35,244,838.91,244.46,841.41,243.39ZM712,220c0,7.61,0,14.9.09,22.19,0,.56,1.19,1.11,1.83,1.66.53-.66,1.47-1.28,1.53-2,.18-2.43.07-4.89.07-7.25,4.86-.78,4.86-.78,6.73,3,.67,1.33,1.41,2.63,2,4,.93,2.22,2.34,2.92,4.78,1.73l-4.82-9.75a18.11,18.11,0,0,0,2.17-1.66c2.09-2.22,2.75-5.12,1.24-7.54a10,10,0,0,0-5.58-4.18C718.94,219.51,715.62,220,712,220ZM783,232.91c0,3.25-.1,6.1.07,8.94,0,.71,1,1.36,1.48,2,.64-.68,1.82-1.35,1.84-2q.21-9.9,0-19.81c0-.69-1.21-1.36-1.85-2-.52.69-1.42,1.34-1.47,2-.19,2.44-.07,4.9-.07,7.46H770.92a64.06,64.06,0,0,0-.08-7c-.11-.9-1.15-1.69-1.76-2.53-.55.78-1.56,1.55-1.58,2.35-.13,6.35-.14,12.7,0,19,0,.85,1.15,1.68,1.77,2.52.55-.9,1.49-1.78,1.57-2.72.21-2.68.07-5.39.07-8.27ZM558.11,224l.83-.57c-.77-1-1.4-2.62-2.34-2.82a30.66,30.66,0,0,0-8.05-.67,6,6,0,0,0-6.08,6c-.27,3.48,2.07,5.41,5.09,6.58,2.08.81,4.37,1.27,6.23,2.43a4.48,4.48,0,0,1,1.86,3.6,4.05,4.05,0,0,1-2.83,2.72c-2.4.17-4.86-.56-7.3-.68a10.28,10.28,0,0,0-3,.82c.76.78,1.47,2.18,2.29,2.25,3.31.27,6.82.75,9.92-.08,1.9-.5,3.84-3,4.58-5.06,1-2.61-.39-5.2-3.09-6.5-2.13-1-4.57-1.47-6.53-2.71-1.46-.94-2.36-2.74-3.52-4.15,1.73-1,3.41-2.57,5.18-2.68C553.54,222.3,555.84,223.41,558.11,224Zm-108.18-.09,1.08-.6c-.84-1-1.55-2.55-2.55-2.75a30.69,30.69,0,0,0-8.06-.6,6,6,0,0,0-5.91,5.73c-.39,3.48,1.84,5.51,4.86,6.71,1.74.68,3.81.85,5.24,1.91s2.18,2.89,3.23,4.39c-1.54,1-3,2.59-4.63,2.78-2,.24-4.09-.82-6.18-1.08a6.54,6.54,0,0,0-2.46.77c.55.79,1,2.22,1.66,2.28,3.42.31,7,.9,10.28.16,1.91-.44,4-2.89,4.76-4.9,1-2.74-.32-5.44-3.2-6.79-2.14-1-4.59-1.45-6.53-2.72-1.43-.93-2.26-2.78-3.36-4.22,1.64-.9,3.25-2.46,4.93-2.54C445.34,222.31,447.65,223.35,449.93,223.89Zm352,8.82a59.91,59.91,0,0,0,6.08-.06,8.59,8.59,0,0,0,2.61-1.26c-.92-.52-1.8-1.37-2.77-1.49a46.87,46.87,0,0,0-5.81-.07v-7c3.18,0,6.05.1,8.89-.08.7,0,1.33-1,2-1.51-.63-.43-1.25-1.2-1.89-1.22-4.1-.11-8.2-.06-12.55-.06v24c4.37,0,8.48.09,12.57-.07.82,0,1.61-1,2.41-1.46-.86-.45-1.71-1.24-2.59-1.29-2.93-.16-5.88-.06-8.94-.06Zm-336,0c2.41,0,4.64.11,6.84-.06.61,0,1.16-.9,1.74-1.39-.59-.47-1.12-1.27-1.76-1.36a20.32,20.32,0,0,0-4.48-.06c-2.63.22-2.75-1.38-2.68-3.31s-.36-3.88,2.67-3.7a58,58,0,0,0,7.1,0,1.94,1.94,0,0,0,1.36-1.29c0-.47-.74-1.42-1.18-1.43-4.42-.11-8.84-.06-13.19-.06v23.95c3.5,0,6.73.16,9.93-.07,1.57-.11,3.09-1,4.63-1.48-1.49-.45-3-1.26-4.46-1.29C465,241,465,241,465.92,232.7Zm235.16,11.56.94-.91c-2.6-7.34-5.17-14.69-7.89-22a2.81,2.81,0,0,0-2.29-1.29,3,3,0,0,0-2.13,1.52c-1.4,3.32-2.63,6.71-3.83,10.1-1.39,3.91-2.7,7.84-4,11.76l1,.84c.94-.74,2.58-1.38,2.7-2.24.7-4.88,3.85-4.89,7.78-5s3.68,2.72,4.86,4.82C698.73,242.89,700.08,243.47,701.08,244.26Zm-167.81-.9c-2.6-7.33-5.16-14.68-7.88-22a2.69,2.69,0,0,0-2.26-1.3,3.57,3.57,0,0,0-2.32,1.83c-1.6,3.9-3,7.89-4.41,11.87-1.14,3.21-2.21,6.44-3.31,9.66,2.67,1.14,3.6-.09,4-2,.63-2.73,1.55-4.6,5.15-4.34,3.41.25,6.47-.08,7,4.47C529.46,243.64,530.75,244.57,533.27,243.36Zm94.3.91,1.17-1c-2.62-7.37-5.21-14.74-8-22.06a2.82,2.82,0,0,0-2.37-1.1,3,3,0,0,0-2.1,1.6c-2.68,7.22-5.21,14.49-7.78,21.74l.74.86c1.06-.76,2.54-1.31,3.1-2.35,1.15-2.16.94-5,4.88-4.86s7.12.2,7.75,5.1C625.12,243,626.68,243.57,627.57,244.27ZM757,241.34l-.94-.93c-4.67,1.57-9.27,2.26-12.47-2.46a10.17,10.17,0,0,1-.23-11.65c3.2-5.15,8-4.48,13.31-3.15-.37-1.34-.89-2.6-1.76-2.94-4.88-1.89-11.39-.05-14.23,3.83a13.75,13.75,0,0,0,.15,16.06c2.82,3.65,9.38,5.44,14,3.63C755.71,243.37,756.27,242.16,757,241.34Zm-178.81-18.5a29.28,29.28,0,0,0,4.71-.07c.75-.14,1.38-1,2.06-1.46-.73-.45-1.45-1.27-2.2-1.3-3.86-.13-7.74-.17-11.6,0-1.1.05-2.16.9-3.24,1.38,1.08.49,2.19,1.43,3.24,1.36,2.85-.18,3.68.91,3.57,3.67-.19,4.84-.15,9.71,0,14.56,0,1,1.13,2,1.74,2.93.56-1,1.58-2,1.61-3C578.26,235.05,578.18,229.22,578.18,222.84ZM201.46,79.36c0-2,.38-4.07-.13-5.91a4.69,4.69,0,0,0-3.05-2.86c-.81-.15-2.75,1.59-2.83,2.59a70.36,70.36,0,0,0,0,12.23c.1,1,2,2.49,3.2,2.65.81.1,2.4-1.64,2.68-2.79C201.79,83.4,201.46,81.34,201.46,79.36Zm15.27.16c-.74-.85-1.53-2.51-2.7-2.85-.9-.25-2.85.88-3.33,1.88a40.15,40.15,0,0,0-3.07,8.76c-.23,1.08.82,3.36,1.62,3.53,1.2.26,3.42-.5,3.92-1.48C214.61,86.51,215.41,83.33,216.73,79.52Zm-27.09,8.84c-1.4-3.88-2.45-7.32-4-10.55-.36-.77-2.52-1.38-3.43-1a3.68,3.68,0,0,0-1.82,3.1,47,47,0,0,0,3.18,9.48c.43.94,2.4,1.72,3.57,1.6C188.09,90.87,188.84,89.27,189.64,88.36ZM595.42,231.6c0,3.36-.08,6.71.06,10.06,0,.75.85,1.47,1.3,2.2.56-.75,1.6-1.49,1.61-2.25.13-6.46.12-12.93,0-19.39,0-.74-.86-1.46-1.31-2.19-.56.75-1.55,1.47-1.6,2.25C595.31,225.38,595.42,228.49,595.42,231.6ZM421.91,93.89c.66-2.89-.51-4.22-3.7-4.17s-4.85.77-4.92,4.36,2.1,3.78,4.76,4C421.16,98.31,422.5,97.15,421.91,93.89Zm456.92.2c.65-3-.44-4.49-3.86-4.38-2.83.09-4.25.77-4.36,4-.11,3.66,1.58,4.29,4.69,4.4S879.41,97.11,878.83,94.09ZM482.9,94.3c.5-2.81,0-4.71-3.71-4.61-3,.09-4.49.81-4.53,4.23s1.62,4.08,4.54,4.18S483.59,97.55,482.9,94.3Z"/><path class="cls-2" d="M0,175.08c4.66,1.7,9.25,3.65,14,5a33.92,33.92,0,0,0,8.79,1c8.12.12,9.4,1.28,9.43,9.2,0,1.72,0,3.44,0,5.75l19.9-1.61c.29-1.88.54-3.47.78-5.06l1-.11,2,4.27.86-.1a25.88,25.88,0,0,1-.4-4.61,21.33,21.33,0,0,1,1.14-4.13l1.51.25c.47,2.82,1,5.65,1.43,8.47l.65.05.78-4.64,1.13-.43,2.42,5.38a13.9,13.9,0,0,0,3.2-2.19c3.38-4,7.84-6.05,12.78-7.24,4.49-1.07,7.28.82,7.93,5.46.56,3.91,1.43,7.91,1.08,11.77-.16,1.77-2.77,4.5-4.53,4.72-6,.74-11.53-1.14-16.4-4.87a13,13,0,0,0-3.17-1.31c-.35,1-.76,2-1,3s-.5,2.19-.74,3.29l-1.36.1-1.45-5.73c-3,2.59,1.67,7.14-3.16,9.86l-1.21-8.9-.58-.07-1.27,5.49-1.38.12-1.46-6L33.9,202.76l1.67,13.07-5.2.7c-1.91,5.62,5.85,5.34,5.95,9.88l-4.48.57c-1.91,5.61,5.8,5.34,5.95,9.87l-5.46.64c-.33,5.79,7.33,4.61,7.62,9.9l-6.29.5a36.49,36.49,0,0,0,.68,5.47c1,3.47,2.19,6.87,3.34,10.29,1.48,4.41,2.7,4.9,6.83,3q12.69-6,25.41-11.88a19.27,19.27,0,0,1,2.51-.79l.52,1.21L42.49,269.51l.34.79c1.34-.5,2.72-.91,4-1.53,9.07-4.38,18.1-8.87,27.22-13.15.82-.38,2.19.42,3.31.67l-.13,1.29c-3.93,1.79-7.89,3.52-11.78,5.39a35.4,35.4,0,0,0-4,2.6L50.21,270.8,44,273l.49,1.08,5.82-3.23,11.25-5.24c2.85-1.19,5.7-2.4,8.57-3.55,1.66-.66,3.37-1.21,5.05-1.81l.43.93A25.09,25.09,0,0,1,73,262.79c-8.48,3.92-17.09,7.59-25.39,11.85-1.89,1-3.37,3.77-3.9,6a3.65,3.65,0,0,0,3.21,4.62c.92.14,1.65,1.64,2.62,2.69,6.93-3.18,13.94-6.39,20.94-9.62,4.41-2,8.88-4,13.16-6.27a5.17,5.17,0,0,0,2.46-3.53c.34-7.67,5-12.18,11.08-15.68.69-.41,3,.41,3.36,1.22,3.44,6.9,6.67,13.91,9.79,21,.31.7-.31,2.58-.93,2.82-5.86,2.31-11.93,3.41-17.58-.22-2.56-1.65-4.52-1.25-6.86-.14q-14.53,6.88-29.1,13.71l-4.73,2.25c.29,2.39,2.24,4.84-.71,6.75-.28.19.12,1.63.39,2.42,1.07,3.15,1.1,3.15-2,5.87,2.07,1,3.84,1.81,5.5,2.78,1.46.85,2.79,1.92,4.18,2.89L0,314.24v-62.1c8.42,0,16.84.06,25.26,0,1.08,0,2.14-.94,3.21-1.44-.24-.5-.48-1-.73-1.5h0c-1.07-.51-2.13-1.43-3.21-1.45-8.18-.11-16.36,0-24.54,0v-6H26.15v-.75H0v-2.24H26.47v-1.5H0v-6H24.65v-.74H0V228.2H25v-1.49H0v-6H23.87V220H0v-2.24H23.53v-1.5H0Z"/><path class="cls-3" d="M0,314.24l58.48-.08c1.87,0,3.74.08,5.61.08h950.66c-.13.25-.24.71-.38.72-1,.06-2,0-3,0q-504,0-1008,0A16.32,16.32,0,0,1,0,314.24Z"/><path class="cls-4" d="M28.47,250.65c-1.07.5-2.13,1.42-3.21,1.44-8.42.11-16.84.06-25.26,0v-1.49H28.47Z"/><path class="cls-1" d="M0,247.65c8.18,0,16.36-.06,24.54,0,1.08,0,2.14.94,3.21,1.45H0Z"/><path class="cls-2" d="M0,249.15H27.74c0,.5,0,1,0,1.5H0Z"/><path class="cls-4" d="M0,237.18H26.46v1.5H0Z"/><path class="cls-4" d="M0,226.71H25v1.49H0Z"/><ellipse class="cls-4" cx="11.76" cy="216.98" rx="16.64" ry="1.06"/><path class="cls-1" d="M0,240.92H26.14v.75H0Z"/><path class="cls-1" d="M0,230.45H24.65v.74H0Z"/><path class="cls-1" d="M0,220H23.86v.75H0Z"/><path class="cls-5" d="M182.31,114.53c-4.64-.75-8.43-1.55-12.26-1.89-1.38-.13-3.48.47-4.11,1.46s.06,3.11.91,4.12c5.55,6.58,11.25,13,17,19.41a6,6,0,0,1,1.52,6.09c-1.69,6.75-3.28,13.55-4.48,20.4a7,7,0,0,0,1.72,5.49A150.26,150.26,0,0,0,195.42,180c1.05.78,3,1.34,4,.87s1.18-2.37,1.67-3.67a2.09,2.09,0,0,0,0-1.11c-2.27-10.59,2.37-17.26,11.74-21.81,4.56-2.22,8.67-5.42,12.83-8.4,1.15-.83,2.48-2.54,2.35-3.69s-1.88-2.43-3.19-2.94c-4.38-1.72-8.88-3.12-13.52-4.71,5.2-13.84,10.17-27.27,15.4-40.58.47-1.2,2.64-2.42,4-2.44,13.12-.18,26.25-.16,39.37-.08,4.33,0,6.44,2.11,6.53,6.48.14,7.11.07,14.22.07,21.33,0,21.44-.06,42.89.07,64.34,0,3.16-.62,4.25-4.07,4.25q-74.25-.19-148.5,0c-3.61,0-4.29-1.15-4.28-4.45.12-28.06.06-56.12.07-84.18,0-5.86,1.94-7.79,7.89-7.8,11.63,0,23.25.06,34.88,0a6.32,6.32,0,0,1,6,3c4,5.88,8.15,11.64,12.21,17.47A22.11,22.11,0,0,1,182.31,114.53Z"/><path class="cls-6" d="M198.37,193.69c24.74,0,49.49.06,74.23-.08,3.24,0,4.76.73,4.16,4.11a2.29,2.29,0,0,0,0,.37c0,9.29-1.31,10.65-10.49,10.65H129c-7.84,0-12.14-6.7-8.76-13.89.36-.76,2.28-1.11,3.48-1.12,19-.06,38,0,57,0Z"/><path class="cls-7" d="M462.74,106.78c1.31.47,2.65.89,3.93,1.44a11.89,11.89,0,0,1,1.87,1.24c-.51.61-.93,1.6-1.55,1.75a34.21,34.21,0,0,1-4.84.48c.69,3.55,1.8,6.88,1.9,10.24.3,9.73-3.77,14-13.53,15-1.58.16-3.15.43-4.72.65l-.21,1.16c4.31,1.13,8.57,2.55,12.94,3.32,5.53,1,9.56,4.09,12.89,8.21,1.81,2.24.39,6.47-2.51,8.85a28.47,28.47,0,0,1-33.36,1.63c-5.35-3.49-6.09-8.58-2.09-15,1.22-1.94,3-3.49,1.17-6.24-.62-1,.33-3.09.82-4.6.87-2.7.84-5.21-1.28-7.28-8.11-7.89-.05-18.83,7.47-20.54,5-1.14,10.05-2.74,15.37-.5,1.51.64,3.76-.47,5.68-.77Zm-20.31,3.12c-2.39,1.58-4.83,3.07-7,4.86-.21.18,1.07,2.19,1.71,3.45l-1.33,1.19.66.76a16.89,16.89,0,0,0,2.88-2.56c.15-.19-1.13-1.46-1.13-1.46l4.37-6.12.28-.39Zm-1.66,11.26c.2,3.37-.48,6.74,3.47,7.43a18.46,18.46,0,0,0,6.67-.11,8.23,8.23,0,0,0,6.44-8.5c-.12-3.83-3.62-7.91-7.26-8.45-4.17-.62-7,1.22-8.6,5.83A22,22,0,0,0,440.77,121.16Zm11.68,35.94.13-.45c2.48-.15,5,0,7.42-.58,1.34-.34,2.37-1.92,3.55-2.94l-2.61-2.34c-.28-.25-.56-.49-.82-.75-3.36-3.35-13.14-5.48-17.36-3.42-1.42.69-3.2,2.52-3.18,3.81a5.78,5.78,0,0,0,2.86,4.45C445.59,156.1,449.09,156.42,452.45,157.1Zm-16,1.15c10.09,5.2,24.16,6.27,26.83,0Zm23.65-39.95c.36-.24.71-.49,1.06-.74-.14-.55-.11-1.26-.45-1.63-2.26-2.45-2.73-4.4,1.12-5.72.5-.17.65-1.38,1.11-2.45-2.77.6-4.86,1.53-6.86,1.38-2.73-.21-5.39-1.24-8.08-1.91,2.41,1.89,5.34,2.57,7.39,4.3S458.53,116,460.06,118.3Zm-1.67,3.85,2.75,3.54c.51-1.12,1.46-2.25,1.41-3.34s-1.08-2.17-1.68-3.26C460.19,119.94,459.5,120.78,458.39,122.15ZM453.63,133c-.05-.45-.11-.9-.16-1.35l-7.11.57c.09.73.18,1.46.28,2.19Zm-18.05,17.74,4.49-6.1C435.34,146.05,433.74,148.49,435.58,150.74Z"/><path class="cls-8" d="M357.72,146.32v-4.65c0-10.71-.08-21.41,0-32.11.05-4.83.39-9.67.8-14.49.07-.83,1-2.22,1.69-2.29,10.33-1.07,20.6-3.22,30.86,1.23,14.87,6.44,18.14,23.23,13.34,35.62-3.39,8.75-8.91,13.85-18.7,14.29C376.6,144.33,367.48,145.45,357.72,146.32Zm45.74-29.59c-.13-7.21-2.7-13.33-8.43-17.84-3.33-2.63-7.8-3.3-10-1.85a3.32,3.32,0,0,0,.88.67c7.25,2.24,12.25,6.41,13.31,14.44.22,1.63,1.7,3.1,2.6,4.64l-1.9,4.76,1.44.54c-3.19,9.15-6.9,18.14-18.91,18-5.46.19-10.92.41-16.38.57-2.89.08-3.86-1.3-3.65-4.21.36-5,.38-10,.36-15,0-.64-1.16-1.27-1.79-1.9a141.77,141.77,0,0,0-.85,20.07c0,2.14,1.09,3.37,3.56,3.14,6.24-.58,12.5-1,18.76-1.52,4.19-.92,8.66-1.22,12.48-3,2.55-1.16,4.43-4.19,6.09-6.72,1.08-1.64,1.26-3.87,1.75-5.86.69-2.79,1.3-5.61,1.86-8.43C404.7,117.21,403.89,116.93,403.46,116.73Zm-38.17,2h-.15c0,5.47.05,10.95,0,16.42,0,2.35.83,3.43,3.27,3.36,3.74-.11,7.51.23,11.22-.15,6.35-.66,13.07-2.38,15.93-8.26,4.7-9.7,4.43-20.73-6.45-28a26.32,26.32,0,0,0-20.62-4c-2.4.49-3.25,1.84-3.2,4.21C365.35,107.74,365.29,113.21,365.29,118.69Zm-4.34.19,1.7,0c.21-3.26.47-6.52.54-9.79,0-.38-1.21-1.22-1.55-1.08-.65.26-1.54,1.09-1.51,1.65C360.26,112.75,360.65,115.81,361,118.88Zm1.69-20.4c-3.73,2.52-1.83,5.42-1.71,8,0,.17.87.48,1.25.38a1.36,1.36,0,0,0,.81-1C363,103.6,362.79,101.35,362.64,98.48ZM360.79,97c.23.46.45.92.67,1.39l6.9-2.64C365.66,95.65,362.27,93.43,360.79,97Z"/><path class="cls-9" d="M613.55,142.82c-.2-13.43-.1-26.87-.87-40.27-.16-2.74-.08-5.38,0-8.07.06-2.17.86-3.18,3.1-3.26,4.46-.16,8.93-.38,13.39-.73,8.64-.68,15.2,2.64,19.82,9.91,5.78,9.08.5,23.89-9.91,26.68-4.49,1.2-9.35,1.27-14.05,1.38-2.67.07-3.55.87-3.47,3.43.13,3.86.17,7.73,0,11.59-.08,1.5-1,4.24-1.49,4.23-2.3-.06-5.2.27-6-3l5.1-.43V132l-3.24-.21c.18,2.65.69,5,.35,7.2C616,140.35,614.47,141.54,613.55,142.82Zm1.57-28.37c.17,1.39.33,2.78.62,5.18,1.45-1.15,3.1-1.84,3.61-3s1-3.42-1.75-3.46a35.85,35.85,0,0,0,1.12-5.35c0-.62-1.07-1.33-1.65-2-.42.68-1.11,1.31-1.23,2C615.48,110,615.34,112.25,615.12,114.45Zm32.15-8.22c1.73-3.28-.71-5.5-2.24-7.76-3.48-5.11-8.92-5.89-14.51-5.66-1.91.08-3.78,1.09-6.13,1.82,1.51,1.58,2.33,2.44,3.1,3.26,5-2.53,9.63-1.86,13.16,2.09a86.64,86.64,0,0,1,5.14,7c-.28,1.45-.56,2.91-.91,4.69a25.11,25.11,0,0,0,3.5-2.06c.57-.47,1.27-1.65,1-2C649.05,106.94,648,106.67,647.27,106.23Zm-26.41,1.13c.27,3.46.62,6.92.79,10.38.11,2.11,1.15,2.91,3.11,2.67,3.32-.39,6.64-.76,9.94-1.28,5.19-.82,9.2-6.95,8-12.07-1-4-3.91-7.2-7.32-7.4a44.92,44.92,0,0,0-8.2.19C620.85,100.66,620.87,100.76,620.86,107.36Zm27,8.62L647,114.9c-1.34.93-3.49,1.63-3.84,2.85-.73,2.53-2.55,2.8-4.42,3.19-4,.84-8.09,1.52-13,2.41a9.87,9.87,0,0,0,2,.85,69.8,69.8,0,0,0,7.75.64c1.09,0,2.18-1,3.27-1.45a4.5,4.5,0,0,1,1.53-.61C644.83,122.6,646.43,119.37,647.88,116Zm-32-23.23-.71,1.4c.24.37.67.75.66,1.12,0,1.31-.18,2.61-.29,3.92,1.58-.55,3.2-1,4.71-1.68a17.25,17.25,0,0,0,2.66-1.9l.14-1.23Z"/><path class="cls-10" d="M835.38,128.37c.1,11.15-9.35,19.71-22.8,18.8-9.8-.66-18.49-8.18-17.94-21.67A21.36,21.36,0,0,1,815,104.81C825.6,104.34,835.27,115.83,835.38,128.37ZM804,113.75c-3.57.55-4.34,3.33-5.49,6.07l5,1.05c-.36-1.51-.66-2.77-1-4.05,2.52-.09,2.63-1.31,1.46-3.11l9.34-4.1C808.62,108.38,805.74,110,804,113.75Zm1.56,25.51-.14-.15c-.19-.44-.27-1.16-.57-1.26a28.73,28.73,0,0,0-3.33-.77c.32,1,.35,2.38,1,2.89a61.4,61.4,0,0,0,6.33,3.63C809.67,139.58,807.61,139.43,805.58,139.26Zm9.81-.11c8.84,0,12.45-3.91,12.66-13.26.17-7.44-5.29-13.14-11.53-13.09-7.33.07-11.87,6.47-11.93,15.86C804.54,135.16,808.71,139.14,815.39,139.15Zm11.35.71-13.89,2.7C817.31,145.27,822.63,144.18,826.74,139.86ZM816,110.42l7.16,1.06.12-1.12C821.37,108.67,819.39,107.4,816,110.42Z"/><path class="cls-8" d="M695.17,128.07c.1,11.4-8.94,19.87-22.45,19.1-10.06-.57-19-8.09-18.2-22.46.52-9.81,9.6-19.7,20.4-19.94C685.42,104.54,695.06,115.8,695.17,128.07Zm-29-16.5c3,1.14,5.14-.07,7-2.76-3.22-.93-5.38.34-7.26,2.47l-2,2.47c-3.43.7-4.57,3.18-4.73,6.51a13,13,0,0,0,4.77-3.84c.52-.64.4-1.79.56-2.71C666,113.77,667.38,113.7,666.12,111.57Zm-.83,27.64-.06-.06c-.52-.8-.88-1.82-1.6-2.3a2.54,2.54,0,0,0-2.21.28,1.91,1.91,0,0,0-.21,1.85c2.35,2.7,5.4,4,9.15,4.61C669.83,140.21,667.86,139.32,665.29,139.21Zm10.17-.06c8.77,0,12.14-3.89,12.42-13.45.21-7.13-5.54-12.94-11.38-12.9-7.62,0-11.49,6.28-12.19,15.7C663.92,133.86,669.18,140.15,675.46,139.15Zm11.73,1.79c-.07-.38-.15-.76-.22-1.14l-13.47,2.6.26,1.23C678.85,145.81,682.88,142.69,687.19,140.94Zm-3.33-29.21c-3.48-4-5.35-4.12-7-1.21Z"/><path class="cls-8" d="M927.67,127.94c.12,11.58-9,20.15-22.69,19.22-9.72-.67-18.58-7.73-18-22.32.41-9.68,9.4-19.74,20.27-20.06C917.81,104.46,927.54,115.7,927.67,127.94Zm-29-16.37c3,1.14,5.14-.07,6.91-2.69-3.2-1.11-5.32.33-7.21,2.39l-2,2.48c-3.43.7-4.57,3.18-4.73,6.51a13,13,0,0,0,4.77-3.84c.52-.64.4-1.79.56-2.71C898.49,113.77,899.88,113.7,898.62,111.57Zm-.83,27.64-.06-.06c-.52-.79-.88-1.82-1.6-2.3a2.52,2.52,0,0,0-2.2.28,1.88,1.88,0,0,0-.22,1.85c2.35,2.7,5.4,4,9.15,4.61C902.33,140.21,900.36,139.32,897.79,139.21Zm10.1-.06c8.81,0,12.19-3.85,12.49-13.37.23-7.21-5.46-13.15-11.68-13-7.35.21-11.17,6.32-11.88,15.63C896.39,134,901.85,140.15,907.89,139.15Zm-3.48,3.28c4.49,3,11.66,1.84,15.29-2.56Zm11-30.9c-2.69-3.71-4-3.82-6.3-1.06Z"/><path class="cls-11" d="M553.54,120.58c-.34,5.24-.6,10-1,14.65-.19,2.52.8,4,3.34,4.5,2.88.52,3.2,2.5,2.47,4.79s-2.74,2.79-4.47,1.49c-4.76-3.58-9.16-1.82-14-.17-5.61,1.88-10.62-.56-14.5-4.65-3.68-3.9-3-8.75-.82-12.91,1.12-2.1,3.94-3.67,6.33-4.63,3.08-1.25,6.53-1.55,9.76-2.48,1.18-.34,3-1.24,3.08-2a6.23,6.23,0,0,0-1.39-4.32c-2.53-2.81-5.59-1.77-8.64-.65-2.08.75-4.67,3.28-6.22-.59-1.31-3.25.36-6.33,4.25-6.75,6.19-.67,12.52-1.44,18,3.09C553.51,113,553.23,117.06,553.54,120.58Zm-8.22,12.26c-.07-4.44-1.49-6.48-4.45-6.41-4.3.12-10.47,5.42-10.56,9.09-.06,2.49,2.41,4.44,5.49,4.35C541.56,139.7,545.38,136.88,545.32,132.84Zm2.51.67c4.11-3.59,3.44-8.11,3.33-13.19l-5.46,2.32,2.13,1.39Zm-18.23-21.6L541.81,110C539.6,107.44,531.08,108.45,529.6,111.91Zm-.08,14.24c-1.2,1.29-1.86,2-2.79,3C529.91,130.23,529.91,130.23,529.52,126.15Zm1.67.23c.21.33.42.67.64,1l3.39-1.7-.48-1Z"/><path class="cls-12" d="M165.29,244.66c-.44-6.59,1.62-9,7.53-9,17.1,0,34.2-.12,51.29.11a10.37,10.37,0,0,1,6.31,2.9c1,1,1,3.46.79,5.2-.05.4-2.6.75-4,.76q-28.83.08-57.66,0Z"/><path class="cls-13" d="M777.93,145.66c-7.39.59-9.4-1.84-7.37-7.79a6.47,6.47,0,0,0,.35-2.18c-.14-5.67-.34-11.33-.52-17-.17-5.19-.18-5.19-5.09-6.18.05-2.78-1.89-6.37,3.58-6.55.77,0,2-2,2.13-3.17.32-2.16-.16-4.44,0-6.64.6-6.29,8.69-11.38,14.57-9.08a3.58,3.58,0,0,1,1.59,3.16c-.44,1.52-1.55,3.62-2.8,4-3.42.94-4.6,2.91-4.68,6.19-.12,5.44-.2,5.61,5.35,5.85,3.53.16,3.6,2.67,3.59,4.9,0,.63-2.22,1.33-3.49,1.84a4.79,4.79,0,0,1-1.85,0c-5.05-.18-5.81,1.38-5.54,6.52C778.26,128.15,777.93,136.83,777.93,145.66Zm-4.4-43.7-.72.38,2.52,3.21c.76-1.09,1.87-2.09,2.2-3.29A89.8,89.8,0,0,0,779.75,92c.07-.46-1.46-1.77-2-1.65-2.86.57-5,1.9-4.51,5.48C773.49,97.86,773.43,99.92,773.53,102Zm.34,4.37c-.55,4.87-4.44,2-6.94,3.29.7.38,1.23.93,1.7.89,4.19-.38,5,1.92,4.69,5.44-.07.79.88,1.65,1.36,2.48l1.15-.57C773.74,114.28,780.21,109.84,773.87,106.33Z"/><path class="cls-9" d="M705.08,106.81c3.84.71,7.47-1.19,10.46,1.68l12.68-5.4c-.33,4-.42,6.71-.87,9.34-.11.64-1.35,1.25-2.19,1.57-8.57,3.26-11.41,8.21-10.12,17.26.57,3.92.76,7.9,1,11.86.14,2.43-1,3.74-3.61,3.53a8.53,8.53,0,0,0-1.13,0c-6,.23-6.19.07-6.21-5.93C705.05,129.68,705.08,118.61,705.08,106.81Zm4.17,7.46.42.35,2.09,1.34-2.33,4.44-.26.41.43-.24h2.81c-1.52,1.8-2.74,3.23-4,4.66l1,1.14c1.26-.89,3.19-1.52,3.64-2.7,1.31-3.52,2-7.26,3.1-11.37-1.45,1.15-2.58,2-3.7,2.94.07-6.57.07-6.57-5.31-6.25C707.91,110.84,708.57,112.55,709.25,114.27Zm-.46,21.8a52.23,52.23,0,0,0,3.38-4.58,6.7,6.7,0,0,0,.73-3.06c0-.28-1.37-1-1.65-.81-.93.63-2.15,1.46-2.35,2.41C708.53,131.79,708.79,133.68,708.79,136.07Zm14.76-23.89,1.37.15c.23-1.27.76-2.58.57-3.79-.1-.63-1.79-1.68-2.19-1.47a43,43,0,0,0-4.84,3.39l.67.83,3.39-2.07C722.94,110.42,723.24,111.3,723.55,112.18Z"/><path class="cls-14" d="M743.58,105.56c4-.63,3.81-3.55,4.15-6l-4.21-1.77c5.17-2.45,6.37-1.77,6.48,2.94.1,4,1.51,5.19,7,4.77,3.21-.24,4.16.85,4.12,3.93,0,2.76-.94,4-3.73,3.6a8.34,8.34,0,0,0-1.12,0c-6.68,0-7.37,1-6.59,7.69.52,4.55.75,9.14.91,13.72.14,3.84,2.44,5.3,5.77,5.49,2.84.16,3.81,1.46,3.25,4.09s-1.87,4-4.75,3.29-6.08-1.39-9-2.46a4.34,4.34,0,0,1-2.4-2.91c-.45-3.67-.51-7.39-.62-11.1-.15-5.19-.13-10.39-.42-15.58,0-.76-1.24-1.84-2.11-2.09-2.33-.67-5.74-.44-5-4,.32-1.56,3.12-2.62,4.79-3.91l.63.69c.43-2,.85-4.09,1.27-6.13l1,.07C743.15,101.66,743.34,103.41,743.58,105.56Zm5.24,34.9c-.74-8.87-1.48-17.67-2.22-26.63-3.41,1-1.9,3.18-1.84,5.09.2,6.72.17,13.45.45,20.16,0,1.19.94,3,1.9,3.39,3.17,1.27,6.56,2,10.38,3.11C756.08,139.6,751,142.52,748.82,140.46Zm9.42-30.13c0-.42-.1-.84-.14-1.26-5.37-1.6-6.54-1.38-7.1,1.72Z"/><path class="cls-6" d="M182.85,229.35c1.08-4.47,2.05-8.8,3.23-13.06a2.73,2.73,0,0,1,2-1.58c7.35-.11,14.7-.07,21.75-.07L214,229.35Z"/><path class="cls-15" d="M502.48,105.51c.88-2,1.75-3.92,2.57-5.77l-4.42-1.84.17-1c1.42-.16,2.93-.66,4.25-.35A3.27,3.27,0,0,1,507,99c-.13,5.55.86,6.63,6.37,6.58,1.3,0,3.6.12,3.72.6a14.11,14.11,0,0,1,.08,5.86c-.1.49-2.1.86-3.23.89-7.63.18-8,.4-7.63,8.16.2,4.46,1,8.89,1.19,13.34.19,3.63,2.3,5.11,5.47,5.41,2.79.27,4.24,1.32,3.53,4.29s-2.4,3.85-5.28,3S505.6,146,503,144.85a5.15,5.15,0,0,1-2.8-3.4c-.4-4.06-.2-8.17-.3-12.26-.11-4.58-.17-9.18-.55-13.74-.07-.86-1.41-2-2.38-2.33-2.26-.67-5.43-.65-4.73-3.87.34-1.57,3-2.64,4.61-3.94l.82.78c.36-2.1.73-4.2,1.09-6.3h1.08a13.3,13.3,0,0,0,.5,3.62c.37.85,1.44,1.4,2.19,2.08a32.85,32.85,0,0,1-3.32,2.72,10.55,10.55,0,0,1-2.49.6,20.47,20.47,0,0,0-2.07.85c.13.45.27.89.4,1.33l11.17-2.38.15-1.54Zm1,8.54-1.14-.5a21.61,21.61,0,0,0-.82,3.91c-.12,4.55-.19,9.11-.08,13.66a42.31,42.31,0,0,0,1,10c.34,1.25,2.85,2.2,4.55,2.71a54.43,54.43,0,0,0,7.23,1.24c-1.13-5.37-6.18-2.75-8.35-4.59C505,131.5,504.21,122.78,503.44,114.05Zm4.52-4c2.46.27,5.15,1.8,7-1.16C512.69,109.62,509.69,106.47,508,110Z"/><path class="cls-8" d="M575.55,85.62c0,8,.05,15.69,0,23.38-.08,8.81-.4,17.62-.29,26.42,0,2.74,1.72,4.8,4.83,5.38a4.76,4.76,0,0,1,2.37,2c-1,1.64-1.94,4-3.42,4.45-4.18,1.18-6.81-2-9.06-4.84a9.3,9.3,0,0,1-1.89-5.19c-.26-15.3-.19-30.61-.52-45.91-.09-4.1,2.33-4.63,5.26-5.14C573.67,86,574.51,85.82,575.55,85.62Zm3.76,60c-.47-1.29-.56-2.63-1.09-2.84-6-2.3-4.91-7.58-5.32-12.22-.21-2.33-.27-4.67-.41-7l-1.25-.23c-.38,1.36-1.17,2.75-1.08,4.07.27,3.7,1.1,7.37,1.33,11.07C571.77,142.9,573.94,145.2,579.31,145.61Zm-6.72-42.88.7-.19a29.77,29.77,0,0,0-1.53-3.46c-.13-.22-1.57-.06-1.61.11a20.16,20.16,0,0,0-.43,3.38c0,.6.1,1.2.11,1.81,0,4.37,0,8.75.21,13.13,0,.74.92,1.45,1.42,2.18.38-.7,1.07-1.4,1.08-2.11C572.64,112.63,572.59,107.68,572.59,102.73Zm.25-13.53c-4.52.65-2.76,3.87-2.76,6.08,0,1,1.08,1.93,1.67,2.9l1.09-.55Z"/><path class="cls-8" d="M853.8,85.62c0,8,.05,15.68,0,23.38-.08,8.8-.4,17.61-.29,26.41,0,2.75,1.71,4.8,4.82,5.39a4.78,4.78,0,0,1,2.38,1.95c-1,1.64-1.93,4.05-3.41,4.46-4.18,1.18-6.82-2-9.07-4.84a9.34,9.34,0,0,1-1.89-5.19c-.26-15.3-.19-30.6-.52-45.9-.09-4.1,2.32-4.64,5.25-5.15C851.91,86,852.75,85.82,853.8,85.62Zm-3.23,38.14-1.13-.45c-.37,1.46-1.13,3-1,4.38.26,3.83.84,7.63,1.37,11.43.64,4.54,2.14,5.82,8.43,6.34-1.39-1.63-2-2.76-3-3.42-1.89-1.31-3.44-2.32-3.41-5.23C851.87,132.47,851,128.11,850.57,123.76Zm-2.14-7.39-.21,0a9.73,9.73,0,0,0,.34,2.5,1.27,1.27,0,0,0,2.42-.55c.15-5.55.33-11.1.22-16.64,0-1-1.4-1.88-2.15-2.82-.46,1-1.33,2-1.31,3C847.84,106.69,848.18,111.53,848.43,116.37Zm2.63-27.26c-4.64,1-2.52,4.27-2.74,6.48-.08.8,1.14,1.72,1.77,2.59l1-.52Z"/><path class="cls-15" d="M878.5,145.63c-5.21.57-7.19-.49-7.6-5.28-.77-9.15-1.06-18.34-1.47-27.52a5.51,5.51,0,0,1,.71-3.23c.91-1.29,2.26-3.16,3.42-3.16,1.67,0,3.58,1.2,4.89,2.42.85.79,1.17,2.54,1.13,3.84C879.3,123.58,878.89,134.46,878.5,145.63Zm-3.41-13.38c-.76-1.79-.76-1.79-2.64,0h2.63l-1.72,2.06,1.28.37Zm.07-15.54c.78-1.28,1.55-2.56,2.92-4.84l-7,1,3.3,3.77-3,1.56c.09.46.19.92.29,1.38h4.84Zm.92,26.16c.23-1.58.82-3.08.51-4.37-.25-1-1.6-1.8-2.45-2.69a19.37,19.37,0,0,0-.49,2.68c0,.65.57,1.49.33,1.94C872.32,143.43,874.57,142.68,876.08,142.87Z"/><path class="cls-9" d="M421.83,145.47c-5.25.93-7.51,0-7.92-4.79-.85-10-1-20-1.2-30a4.08,4.08,0,0,1,4.07-4.49c3-.13,5,1.46,5.21,4.22.35,4.66.13,9.36.12,14q0,9.08-.09,18.15C422,143.61,421.9,144.57,421.83,145.47Zm-5.54-9.29c1.07,2-1.93,5.74,3,7.12-.68-3,2.38-6.12-2.2-7.18a55.82,55.82,0,0,0,2.66-7.64c.14-.68-1.51-2-2.57-2.55-.39-.22-2.14.82-2.11,1.19C415.34,130.15,415.86,133.17,416.29,136.18Zm4-22.85-.92-.8-2.93,2.09,1,1.07Z"/><path class="cls-9" d="M482.61,145.5c-5,.84-7.25-.38-7.64-5-.75-8.89-1.29-17.8-1.46-26.72-.11-5.52,1.73-7.68,5.09-7.58s5.2,2.79,5.08,7.78C483.45,124.51,483,135,482.61,145.5Zm-7.34-26.65c1.2.25,1.89.35,2.54.56s1.41.56,2.11.85a13.5,13.5,0,0,0,.65-2.29,8.2,8.2,0,0,0,0-2.84c-.54-2.1-1.27-4.15-2.11-6.8-1.14,2.52-1.8,3.94-2.52,5.53l1.72,2.74Zm7.14,7.77c-5.2-.92-5.2-.92-5.57,5.66l.91.67Zm-1.26,15.9L479.46,137c-.76.93-1.89,1.75-2.19,2.8C476.69,141.91,477.58,143.16,481.15,142.52Z"/><path class="cls-7" d="M639.68,219.39c1.41,1,3.21,1.69,4.15,3,3.31,4.65,6.31,9.5,10.25,14.16,0-4.49-.1-9,.08-13.44,0-1.06,1-2.09,1.52-3.13.63,1.07,1.77,2.13,1.8,3.22.18,5.72.15,11.45,0,17.17,0,1.17-.74,2.32-1.14,3.48-1.14-.77-2.59-1.32-3.34-2.37-3.54-4.93-6.89-10-11-14.9,0,4.62.1,9.24-.08,13.86,0,1.17-1,2.3-1.56,3.44-.62-1.08-1.73-2.16-1.76-3.26-.17-6.7-.08-13.41-.08-20.11Z"/><path class="cls-11" d="M500.67,230.76c3.58,2.23,5,5,3.81,8.34s-3.75,4.81-7.22,4.83H488V220a89.31,89.31,0,0,1,9,.06C502.47,220.61,503.89,225,500.67,230.76Zm-9.31,11c3.41-.86,6.4-1.27,9-2.51.63-.3.52-4.53-.22-4.88-2.58-1.21-5.59-1.5-8.77-2.22Zm0-11.28c2.8-.83,5.16-1.21,7.1-2.32.58-.33.46-3.67-.16-4-2-1-4.37-1.18-6.94-1.77Z"/><path class="cls-14" d="M841.41,243.39c-2.5,1.07-4.06.62-5-1.71-.62-1.49-1.6-2.84-2.13-4.36-1-3-3-3.67-6.38-2.65,0,2.27.15,4.73-.09,7.15-.07.74-1.18,1.39-1.81,2.08-.55-.65-1.57-1.29-1.58-2-.11-7.19-.07-14.38-.07-21.86,3.78,0,7.27-.61,10.39.21a9.25,9.25,0,0,1,5.46,4.8c1.41,3.43-.37,6.51-3.67,8.68Zm-13.18-21.32v10.18c3.18-1.14,5.87-1.75,8.11-3.12.67-.4.6-3.88-.08-4.27C834,223.58,831.28,223.06,828.23,222.07Z"/><path class="cls-13" d="M712,220c3.67,0,7-.53,10,.18a10,10,0,0,1,5.58,4.18c1.51,2.42.85,5.32-1.24,7.54a18.11,18.11,0,0,1-2.17,1.66l4.82,9.75c-2.44,1.19-3.85.49-4.78-1.73-.58-1.38-1.32-2.68-2-4-1.87-3.73-1.87-3.73-6.73-3,0,2.36.11,4.82-.07,7.25-.06.7-1,1.32-1.53,2-.64-.55-1.82-1.1-1.83-1.66C711.91,234.94,712,227.65,712,220Zm3.76,2.14V232c3-.81,5.87-1.11,8.12-2.4.78-.44.8-4.47,0-4.91C721.62,223.34,718.8,223,715.71,222.18Z"/><path class="cls-11" d="M783,232.91H770.92c0,2.88.14,5.59-.07,8.27-.08.94-1,1.82-1.57,2.72-.62-.84-1.75-1.67-1.77-2.52-.15-6.35-.14-12.7,0-19,0-.8,1-1.57,1.58-2.35.61.84,1.65,1.63,1.76,2.53a64.06,64.06,0,0,1,.08,7H783c0-2.56-.12-5,.07-7.46,0-.71.95-1.36,1.47-2,.64.68,1.83,1.35,1.85,2q.21,9.9,0,19.81c0,.7-1.2,1.37-1.84,2-.52-.68-1.44-1.33-1.48-2C782.93,239,783,236.16,783,232.91Z"/><path class="cls-16" d="M558.11,224c-2.27-.57-4.57-1.68-6.8-1.55-1.77.11-3.45,1.73-5.18,2.68,1.16,1.41,2.06,3.21,3.52,4.15,2,1.24,4.4,1.69,6.53,2.71,2.7,1.3,4,3.89,3.09,6.5-.74,2-2.68,4.56-4.58,5.06-3.1.83-6.61.35-9.92.08-.82-.07-1.53-1.47-2.29-2.25a10.28,10.28,0,0,1,3-.82c2.44.12,4.9.85,7.3.68a4.05,4.05,0,0,0,2.83-2.72,4.48,4.48,0,0,0-1.86-3.6c-1.86-1.16-4.15-1.62-6.23-2.43-3-1.17-5.36-3.1-5.09-6.58a6,6,0,0,1,6.08-6,30.66,30.66,0,0,1,8.05.67c.94.2,1.57,1.84,2.34,2.82Z"/><path class="cls-16" d="M449.93,223.89c-2.28-.54-4.59-1.58-6.84-1.47-1.68.08-3.29,1.64-4.93,2.54,1.1,1.44,1.93,3.29,3.36,4.22,1.94,1.27,4.39,1.72,6.53,2.72,2.88,1.35,4.22,4,3.2,6.79-.74,2-2.85,4.46-4.76,4.9-3.26.74-6.86.15-10.28-.16-.62-.06-1.11-1.49-1.66-2.28a6.54,6.54,0,0,1,2.46-.77c2.09.26,4.2,1.32,6.18,1.08,1.63-.19,3.09-1.8,4.63-2.78-1.05-1.5-1.83-3.36-3.23-4.39s-3.5-1.23-5.24-1.91c-3-1.2-5.25-3.23-4.86-6.71a6,6,0,0,1,5.91-5.73,30.69,30.69,0,0,1,8.06.6c1,.2,1.71,1.79,2.55,2.75Z"/><path class="cls-8" d="M802,232.71v8.34c3.06,0,6-.1,8.94.06.88,0,1.73.84,2.59,1.29-.8.51-1.59,1.43-2.41,1.46-4.09.16-8.2.07-12.57.07V220c4.35,0,8.45-.05,12.55.06.64,0,1.26.79,1.89,1.22-.66.53-1.29,1.47-2,1.51-2.84.18-5.71.08-8.89.08v7a46.87,46.87,0,0,1,5.81.07c1,.12,1.85,1,2.77,1.49a8.59,8.59,0,0,1-2.61,1.26A59.91,59.91,0,0,1,802,232.71Z"/><path class="cls-15" d="M465.92,232.7c-.91,8.33-.91,8.25,6.52,8.4,1.49,0,3,.84,4.46,1.29-1.54.52-3.06,1.37-4.63,1.48-3.2.23-6.43.07-9.93.07V220c4.35,0,8.77-.05,13.19.06.44,0,1.21,1,1.18,1.43a1.94,1.94,0,0,1-1.36,1.29,58,58,0,0,1-7.1,0c-3-.18-2.61,1.84-2.67,3.7s.05,3.53,2.68,3.31a20.32,20.32,0,0,1,4.48.06c.64.09,1.17.89,1.76,1.36-.58.49-1.13,1.34-1.74,1.39C470.56,232.81,468.33,232.7,465.92,232.7Z"/><path class="cls-7" d="M701.08,244.26c-1-.79-2.35-1.37-2.92-2.39-1.18-2.1-.89-5-4.86-4.82s-7.08.13-7.78,5c-.12.86-1.76,1.5-2.7,2.24l-1-.84c1.35-3.92,2.66-7.85,4-11.76,1.2-3.39,2.43-6.78,3.83-10.1a3,3,0,0,1,2.13-1.52,2.81,2.81,0,0,1,2.29,1.29c2.72,7.29,5.29,14.64,7.89,22Zm-8.76-18.86-.93,0-3.13,9.1h7.39Z"/><path class="cls-7" d="M533.27,243.36c-2.52,1.21-3.81.28-4-1.83-.48-4.55-3.54-4.22-7-4.47-3.6-.26-4.52,1.61-5.15,4.34-.45,2-1.38,3.19-4,2,1.1-3.22,2.17-6.45,3.31-9.66,1.42-4,2.81-8,4.41-11.87a3.57,3.57,0,0,1,2.32-1.83,2.69,2.69,0,0,1,2.26,1.3C528.11,228.68,530.67,236,533.27,243.36Zm-6.37-8.84c-1.22-3.35-2.28-6.23-3.34-9.12l-.93,0c-1,2.94-2,5.88-3.12,9.09Z"/><path class="cls-7" d="M627.57,244.27c-.89-.7-2.45-1.31-2.56-2.11-.63-4.9-3.8-5-7.75-5.1s-3.73,2.7-4.88,4.86c-.56,1-2,1.59-3.1,2.35l-.74-.86c2.57-7.25,5.1-14.52,7.78-21.74a3,3,0,0,1,2.1-1.6,2.82,2.82,0,0,1,2.37,1.1c2.74,7.32,5.33,14.69,8,22.06Zm-5.24-9.74c-1.18-3.39-2.19-6.27-3.21-9.16l-.9.08-3.29,9.08Z"/><path class="cls-7" d="M757,241.34c-.72.82-1.28,2-2.18,2.39-4.61,1.81-11.17,0-14-3.63a13.75,13.75,0,0,1-.15-16.06c2.84-3.88,9.35-5.72,14.23-3.83.87.34,1.39,1.6,1.76,2.94-5.28-1.33-10.11-2-13.31,3.15a10.17,10.17,0,0,0,.23,11.65c3.2,4.72,7.8,4,12.47,2.46Z"/><path class="cls-14" d="M578.18,222.84c0,6.38.08,12.21-.08,18,0,1-1.05,2-1.61,3-.61-1-1.7-1.93-1.74-2.93-.18-4.85-.22-9.72,0-14.56.11-2.76-.72-3.85-3.57-3.67-1,.07-2.16-.87-3.24-1.36,1.08-.48,2.14-1.33,3.24-1.38,3.86-.17,7.74-.13,11.6,0,.75,0,1.47.85,2.2,1.3-.68.51-1.31,1.32-2.06,1.46A29.28,29.28,0,0,1,578.18,222.84Z"/><path class="cls-17" d="M201.46,79.36c0,2,.33,4-.13,5.91-.28,1.15-1.87,2.89-2.68,2.79-1.21-.16-3.1-1.61-3.2-2.65a70.36,70.36,0,0,1,0-12.23c.08-1,2-2.74,2.83-2.59a4.69,4.69,0,0,1,3.05,2.86C201.84,75.29,201.46,77.38,201.46,79.36Z"/><path class="cls-17" d="M216.73,79.52c-1.32,3.81-2.12,7-3.56,9.84-.5,1-2.72,1.74-3.92,1.48-.8-.17-1.85-2.45-1.62-3.53a40.15,40.15,0,0,1,3.07-8.76c.48-1,2.43-2.13,3.33-1.88C215.2,77,216,78.67,216.73,79.52Z"/><path class="cls-17" d="M189.64,88.36c-.8.91-1.55,2.51-2.46,2.61-1.17.12-3.14-.66-3.57-1.6a47,47,0,0,1-3.18-9.48,3.68,3.68,0,0,1,1.82-3.1c.91-.36,3.07.25,3.43,1C187.19,81,188.24,84.48,189.64,88.36Z"/><path class="cls-16" d="M595.42,231.6c0-3.11-.11-6.22.08-9.32,0-.78,1-1.5,1.6-2.25.45.73,1.3,1.45,1.31,2.19.1,6.46.11,12.93,0,19.39,0,.76-1,1.5-1.61,2.25-.45-.73-1.26-1.45-1.3-2.2C595.34,238.31,595.42,235,595.42,231.6Z"/><path class="cls-7" d="M421.91,93.89c.59,3.26-.75,4.42-3.86,4.18-2.66-.21-4.83-.29-4.76-4s1.86-4.32,4.92-4.36S422.57,91,421.91,93.89Z"/><path class="cls-8" d="M878.83,94.09c.58,3-.47,4.14-3.53,4s-4.8-.74-4.69-4.4c.11-3.23,1.53-3.91,4.36-4C878.39,89.6,879.48,91.09,878.83,94.09Z"/><path class="cls-14" d="M482.9,94.3c.69,3.25-.9,3.89-3.7,3.8s-4.59-.66-4.54-4.18,1.52-4.14,4.53-4.23C482.85,89.59,483.4,91.49,482.9,94.3Z"/><path class="cls-18" d="M613.55,142.82c.92-1.28,2.41-2.47,2.63-3.86.34-2.21-.17-4.55-.35-7.2l3.24.21v12.34l-5.1.43Z"/><path class="cls-1" d="M50.2,270.8l11.26-5.23.07.08-11.25,5.24Z"/><path class="cls-1" d="M50.28,270.89l-5.82,3.23L44,273l6.24-2.24Z"/><path class="cls-19" d="M27.75,250.65c0-.5,0-1,0-1.5.25.5.49,1,.73,1.5h-.72Z"/><path class="cls-20" d="M440.77,121.16a22,22,0,0,1,.72-3.8c1.6-4.61,4.43-6.45,8.6-5.83,3.64.54,7.14,4.62,7.26,8.45a8.23,8.23,0,0,1-6.44,8.5,18.46,18.46,0,0,1-6.67.11C440.29,127.9,441,124.53,440.77,121.16Z"/><path class="cls-20" d="M452.45,157.1c-3.36-.68-6.86-1-10-2.22a5.78,5.78,0,0,1-2.86-4.45c0-1.29,1.76-3.12,3.18-3.81,4.22-2.06,14,.07,17.36,3.42.26.26.54.5.82.75l2.61,2.34c-1.18,1-2.21,2.6-3.55,2.94-2.38.59-4.94.43-7.42.58Z"/><path class="cls-21" d="M436.41,158.25h26.83C460.57,164.52,446.5,163.45,436.41,158.25Z"/><path class="cls-22" d="M460.06,118.3c-1.53-2.3-2.68-5.06-4.71-6.77s-5-2.41-7.39-4.3c2.69.67,5.35,1.7,8.08,1.91,2,.15,4.09-.78,6.86-1.38-.46,1.07-.61,2.28-1.11,2.45-3.85,1.32-3.38,3.27-1.12,5.72.34.37.31,1.08.45,1.63C460.77,117.81,460.42,118.06,460.06,118.3Z"/><path class="cls-23" d="M442.55,110l-4.37,6.12s1.28,1.27,1.13,1.46a16.89,16.89,0,0,1-2.88,2.56l-.66-.76,1.33-1.19c-.64-1.26-1.92-3.27-1.71-3.45,2.21-1.79,4.65-3.28,7-4.86Z"/><path class="cls-23" d="M458.39,122.15c1.11-1.37,1.8-2.21,2.48-3.06.6,1.09,1.63,2.15,1.68,3.26s-.9,2.22-1.41,3.34Z"/><path class="cls-23" d="M453.63,133l-7,1.41c-.1-.73-.19-1.46-.28-2.19l7.11-.57C453.52,132.1,453.58,132.55,453.63,133Z"/><path class="cls-24" d="M435.58,150.74c-1.84-2.25-.24-4.69,4.49-6.1Z"/><path class="cls-23" d="M442.43,109.9l.4-.27-.28.39Z"/><path class="cls-25" d="M365.29,118.69c0-5.48.06-11,0-16.42-.05-2.37.8-3.72,3.2-4.21a26.32,26.32,0,0,1,20.62,4c10.88,7.27,11.15,18.3,6.45,28-2.86,5.88-9.58,7.6-15.93,8.26-3.71.38-7.48,0-11.22.15-2.44.07-3.31-1-3.27-3.36.08-5.47,0-11,0-16.42Z"/><path class="cls-26" d="M382.5,141.3c-6.26.5-12.52.94-18.76,1.52-2.47.23-3.53-1-3.56-3.14a141.77,141.77,0,0,1,.85-20.07c.63.63,1.78,1.26,1.79,1.9,0,5,0,10-.36,15-.21,2.91.76,4.29,3.65,4.21,5.46-.16,10.92-.38,16.38-.57C382.49,140.5,382.49,140.9,382.5,141.3Z"/><path class="cls-22" d="M382.5,141.3c0-.4,0-.8,0-1.19,12,.12,15.72-8.87,18.91-18l-1.44-.54,1.9-4.76,1.6-.06c.43.2,1.24.48,1.22.59-.56,2.82-1.17,5.64-1.86,8.43-.49,2-.67,4.22-1.75,5.86-1.66,2.53-3.54,5.56-6.09,6.72C391.16,140.08,386.69,140.38,382.5,141.3Z"/><path class="cls-21" d="M403.46,116.73l-1.6.06c-.9-1.54-2.38-3-2.6-4.64-1.06-8-6.06-12.2-13.31-14.44a3.32,3.32,0,0,1-.88-.67c2.16-1.45,6.63-.78,10,1.85C400.76,103.4,403.33,109.52,403.46,116.73Z"/><path class="cls-22" d="M361,118.88c-.3-3.07-.69-6.13-.82-9.2,0-.56.86-1.39,1.51-1.65.34-.14,1.56.7,1.55,1.08-.07,3.27-.33,6.53-.54,9.79Z"/><path class="cls-26" d="M362.64,98.48c.15,2.87.31,5.12.35,7.38a1.36,1.36,0,0,1-.81,1c-.38.1-1.24-.21-1.25-.38C360.81,103.9,358.91,101,362.64,98.48Z"/><path class="cls-21" d="M360.79,97c1.48-3.52,4.87-1.3,7.57-1.25l-6.9,2.64C361.24,97.87,361,97.41,360.79,97Z"/><path class="cls-20" d="M620.86,107.36c0-6.6,0-6.7,6.31-7.51a44.92,44.92,0,0,1,8.2-.19c3.41.2,6.36,3.35,7.32,7.4,1.21,5.12-2.8,11.25-8,12.07-3.3.52-6.62.89-9.94,1.28-2,.24-3-.56-3.11-2.67C621.48,114.28,621.13,110.82,620.86,107.36Z"/><path class="cls-21" d="M645.79,107a86.64,86.64,0,0,0-5.14-7c-3.53-4-8.17-4.62-13.16-2.09-.77-.82-1.59-1.68-3.1-3.26,2.35-.73,4.22-1.74,6.13-1.82,5.59-.23,11,.55,14.51,5.66,1.53,2.26,4,4.48,2.24,7.76Z"/><path class="cls-21" d="M647.88,116c-1.45,3.39-3,6.62-7.61,6.8a4.5,4.5,0,0,0-1.53.61c-1.09.5-2.18,1.44-3.27,1.45a69.8,69.8,0,0,1-7.75-.64,9.87,9.87,0,0,1-2-.85c4.9-.89,9-1.57,13-2.41,1.87-.39,3.69-.66,4.42-3.19.35-1.22,2.5-1.92,3.84-2.85Z"/><path class="cls-22" d="M615.91,92.75l7.17,1.63-.14,1.23a17.25,17.25,0,0,1-2.66,1.9c-1.51.69-3.13,1.13-4.71,1.68.11-1.31.28-2.61.29-3.92,0-.37-.42-.75-.66-1.12Zm4.16,2.67-.22-.12,0,.19Z"/><path class="cls-21" d="M615.12,114.45c.22-2.2.36-4.42.72-6.61.12-.73.81-1.36,1.23-2,.58.66,1.69,1.37,1.65,2a35.85,35.85,0,0,1-1.12,5.35Z"/><path class="cls-23" d="M615.12,114.45l2.48-1.31c2.75,0,2.23,2.34,1.75,3.46s-2.16,1.88-3.61,3C615.45,117.23,615.29,115.84,615.12,114.45Z"/><path class="cls-26" d="M645.79,107l1.48-.74c.76.44,1.78.71,2.16,1.36.22.36-.48,1.54-1,2a25.11,25.11,0,0,1-3.5,2.06C645.23,109.88,645.51,108.42,645.79,107Z"/><path class="cls-25" d="M815.39,139.15c-6.68,0-10.85-4-10.8-10.49.06-9.39,4.6-15.79,11.93-15.86,6.24,0,11.7,5.65,11.53,13.09C827.84,135.24,824.23,139.16,815.39,139.15Z"/><path class="cls-23" d="M826.74,139.86c-4.11,4.32-9.43,5.41-13.89,2.7Z"/><path class="cls-27" d="M805.58,139.26c2,.17,4.09.32,3.32,4.34a61.4,61.4,0,0,1-6.33-3.63c-.68-.51-.71-1.9-1-2.89a28.73,28.73,0,0,1,3.33.77c.3.1.38.82.57,1.26l-.32.43Z"/><path class="cls-26" d="M804,113.71c1.17,1.8,1.06,3-1.46,3.11.31,1.28.61,2.54,1,4.05l-5-1.05c1.15-2.74,1.92-5.52,5.49-6.07Z"/><path class="cls-26" d="M804,113.75c1.72-3.72,4.6-5.37,9.3-4.14l-9.34,4.1Z"/><path class="cls-21" d="M816,110.42c3.36-3,5.34-1.75,7.28-.06l-.12,1.12Z"/><path class="cls-25" d="M675.46,139.15c-6.28,1-11.54-5.29-11.15-10.65.7-9.42,4.57-15.65,12.19-15.7,5.84,0,11.59,5.77,11.38,12.9C687.6,135.26,684.23,139.15,675.46,139.15Z"/><path class="cls-22" d="M687.19,140.94c-4.31,1.75-8.34,4.87-13.43,2.69l-.26-1.23L687,139.8C687,140.18,687.12,140.56,687.19,140.94Z"/><path class="cls-26" d="M665.29,139.21c2.57.11,4.54,1,5.07,4.38-3.75-.59-6.8-1.91-9.15-4.61a1.91,1.91,0,0,1,.21-1.85,2.54,2.54,0,0,1,2.21-.28c.72.48,1.08,1.5,1.6,2.3l-.33.38Z"/><path class="cls-26" d="M664.44,113.71c-.16.92,0,2.07-.56,2.71a13,13,0,0,1-4.77,3.84c.16-3.33,1.3-5.81,4.73-6.51Z"/><path class="cls-22" d="M665.81,111.27c1.89-2.12,4.05-3.39,7.27-2.46-1.82,2.69-3.92,3.9-7,2.76A2.91,2.91,0,0,1,665.81,111.27Z"/><path class="cls-21" d="M683.86,111.73l-7-1.21C678.51,107.61,680.38,107.75,683.86,111.73Z"/><path class="cls-22" d="M664.44,113.71l-.6,0,2-2.48a2.13,2.13,0,0,0,.3.3C667.38,113.7,666,113.77,664.44,113.71Z"/><path class="cls-25" d="M907.89,139.15c-6,1-11.5-5.14-11.07-10.72.71-9.31,4.53-15.42,11.88-15.63,6.22-.17,11.91,5.77,11.68,13C920.08,135.3,916.7,139.15,907.89,139.15Z"/><path class="cls-22" d="M904.41,142.43l15.29-2.56C916.07,144.27,908.9,145.41,904.41,142.43Z"/><path class="cls-26" d="M897.79,139.21c2.57.11,4.54,1,5.07,4.38-3.75-.59-6.8-1.91-9.15-4.61a1.88,1.88,0,0,1,.22-1.85,2.52,2.52,0,0,1,2.2-.28c.72.48,1.08,1.51,1.6,2.3l-.33.39Z"/><path class="cls-26" d="M896.94,113.71c-.16.92,0,2.07-.56,2.71a13,13,0,0,1-4.77,3.84c.16-3.33,1.3-5.81,4.73-6.51Z"/><path class="cls-22" d="M898.31,111.27c1.9-2.06,4-3.5,7.22-2.39-1.77,2.62-3.87,3.83-6.91,2.69A2.91,2.91,0,0,1,898.31,111.27Z"/><path class="cls-21" d="M915.37,111.53l-6.3-1.06C911.36,107.71,912.68,107.82,915.37,111.53Z"/><path class="cls-22" d="M896.94,113.71l-.6,0,2-2.48a2.13,2.13,0,0,0,.3.3C899.88,113.7,898.49,113.77,896.94,113.71Z"/><path class="cls-20" d="M545.32,132.84c.06,4-3.76,6.86-9.52,7-3.08.09-5.55-1.86-5.49-4.35.09-3.67,6.26-9,10.56-9.09C543.83,126.36,545.25,128.4,545.32,132.84Z"/><path class="cls-21" d="M547.83,133.51V124l-2.13-1.39,5.46-2.32C551.27,125.4,551.94,129.92,547.83,133.51Z"/><path class="cls-23" d="M529.6,111.91c1.48-3.46,10-4.47,12.21-1.92Z"/><path class="cls-24" d="M529.52,126.15c.39,4.08.39,4.08-2.79,3C527.66,128.15,528.32,127.44,529.52,126.15Z"/><path class="cls-24" d="M531.19,126.38l3.55-1.66.48,1-3.39,1.7C531.61,127.05,531.4,126.71,531.19,126.38Z"/><path class="cls-21" d="M773.53,102c-.1-2,0-4.1-.34-6.11-.53-3.58,1.65-4.91,4.51-5.48.59-.12,2.12,1.19,2,1.65a89.8,89.8,0,0,1-2.22,10.24c-.33,1.2-1.44,2.2-2.2,3.29l-2.52-3.21Z"/><path class="cls-27" d="M773.87,106.33c6.34,3.51-.13,8,2,11.53l-1.15.57c-.48-.83-1.43-1.69-1.36-2.48.29-3.52-.5-5.82-4.69-5.44-.47,0-1-.51-1.7-.89C769.43,108.33,773.32,111.2,773.87,106.33Z"/><path class="cls-27" d="M709.43,120.4l2.33-4.44,0,0,.79-.79,0,0,3.7-2.93c-1.07,4.11-1.79,7.85-3.1,11.37-.45,1.18-2.38,1.81-3.64,2.7l-1-1.14c1.22-1.43,2.44-2.86,4-4.66H709.6Z"/><path class="cls-24" d="M709.24,114.26c-.67-1.71-1.33-3.42-2.06-5.27,5.38-.32,5.38-.32,5.31,6.25l0,0-.79.79,0,0-2.09-1.34.69-1.54c.1-.16.2-.32.29-.48l-.46.31Z"/><path class="cls-24" d="M708.79,136.07c0-2.39-.26-4.28.11-6,.2-.95,1.42-1.78,2.35-2.41.28-.18,1.66.53,1.65.81a6.7,6.7,0,0,1-.73,3.06A52.23,52.23,0,0,1,708.79,136.07Z"/><path class="cls-24" d="M723.55,112.18c-.31-.88-.61-1.76-1-3l-3.39,2.07-.67-.83a43,43,0,0,1,4.84-3.39c.4-.21,2.09.84,2.19,1.47.19,1.21-.34,2.52-.57,3.79Z"/><path class="cls-27" d="M709.6,120.57l-.43.24.26-.41Z"/><path class="cls-27" d="M748.82,140.46c2.19,2.06,7.26-.86,8.67,5.12-3.82-1.1-7.21-1.84-10.38-3.11-1-.38-1.85-2.2-1.9-3.39-.28-6.71-.25-13.44-.45-20.16-.06-1.91-1.57-4.14,1.84-5.09C747.34,122.79,748.08,131.59,748.82,140.46Z"/><path class="cls-27" d="M758.24,110.33l-7.24.46c.56-3.1,1.73-3.32,7.1-1.72C758.14,109.49,758.19,109.91,758.24,110.33Z"/><path class="cls-27" d="M503.44,114.05c.77,8.73,1.54,17.45,2.34,26.46,2.17,1.84,7.22-.78,8.35,4.59a54.43,54.43,0,0,1-7.23-1.24c-1.7-.51-4.21-1.46-4.55-2.71a42.31,42.31,0,0,1-1-10c-.11-4.55,0-9.11.08-13.66a21.61,21.61,0,0,1,.82-3.91Z"/><path class="cls-22" d="M502.48,105.51l3.87,1.55-.15,1.54L495,111c-.13-.44-.27-.88-.4-1.33a20.47,20.47,0,0,1,2.07-.85,10.55,10.55,0,0,0,2.49-.6,32.85,32.85,0,0,0,3.32-2.72Z"/><path class="cls-26" d="M508,110c1.73-3.56,4.73-.41,7-1.16C513.11,111.83,510.42,110.3,508,110Z"/><path class="cls-24" d="M579.31,145.61c-5.37-.41-7.54-2.71-7.82-7.16-.23-3.7-1.06-7.37-1.33-11.07-.09-1.32.7-2.71,1.08-4.07l1.25.23c.14,2.34.2,4.68.41,7,.41,4.64-.67,9.92,5.32,12.22C578.75,143,578.84,144.32,579.31,145.61Z"/><path class="cls-23" d="M572.59,102.73c0,5,0,9.9-.05,14.85,0,.71-.7,1.41-1.08,2.11-.5-.73-1.39-1.44-1.42-2.18-.18-4.38-.16-8.76-.21-13.13,0-.61-.15-1.21-.11-1.81a20.16,20.16,0,0,1,.43-3.38c0-.17,1.48-.33,1.61-.11a29.77,29.77,0,0,1,1.53,3.46Z"/><path class="cls-21" d="M572.84,89.2v8.43l-1.09.55c-.59-1-1.67-1.93-1.67-2.9C570.08,93.07,568.32,89.85,572.84,89.2Z"/><path class="cls-24" d="M850.57,123.76c.46,4.35,1.3,8.71,1.24,13,0,2.91,1.52,3.92,3.41,5.23,1,.66,1.59,1.79,3,3.42-6.29-.52-7.79-1.8-8.43-6.34-.53-3.8-1.11-7.6-1.37-11.43-.09-1.43.67-2.92,1-4.38Z"/><path class="cls-23" d="M848.43,116.37c-.25-4.84-.59-9.68-.69-14.53,0-1,.85-2,1.31-3,.75.94,2.13,1.87,2.15,2.82.11,5.54-.07,11.09-.22,16.64a1.27,1.27,0,0,1-2.42.55,9.73,9.73,0,0,1-.34-2.5Z"/><path class="cls-21" d="M851.06,89.11v8.55l-1,.52c-.63-.87-1.85-1.79-1.77-2.59C848.54,93.38,846.42,90.13,851.06,89.11Z"/><path class="cls-22" d="M876.08,142.87c-1.51-.19-3.76.56-2.1-2.44.24-.45-.36-1.29-.33-1.94a19.37,19.37,0,0,1,.49-2.68c.85.89,2.2,1.66,2.45,2.69C876.9,139.79,876.31,141.29,876.08,142.87Z"/><path class="cls-23" d="M874.34,116.66l-3.3-3.77,7-1-2.91,4.84Z"/><path class="cls-18" d="M874.34,116.66l.82,0,1.29,2.89h-4.84c-.1-.46-.2-.92-.29-1.38Z"/><path class="cls-26" d="M875.08,132.26h-2.63c1.88-1.8,1.88-1.8,2.64,0Z"/><path class="cls-20" d="M875.08,132.26v0l-.45,2.45-1.28-.37Z"/><path class="cls-18" d="M416.29,136.18c-.43-3-1-6-1.19-9.06,0-.37,1.72-1.41,2.11-1.19,1.06.58,2.71,1.87,2.57,2.55a55.82,55.82,0,0,1-2.66,7.64Z"/><path class="cls-22" d="M416.29,136.18l.83-.06c4.58,1.06,1.52,4.2,2.2,7.18C414.36,141.92,417.36,138.22,416.29,136.18Z"/><path class="cls-21" d="M420.31,113.33l-2.87,2.36-1-1.07,2.93-2.09Z"/><path class="cls-28" d="M475.27,118.85l2.38-2.25-1.72-2.74c.72-1.59,1.38-3,2.52-5.53.84,2.65,1.57,4.7,2.11,6.8a8.2,8.2,0,0,1,0,2.84,13.5,13.5,0,0,1-.65,2.29c-.7-.29-1.39-.62-2.11-.85S476.47,119.1,475.27,118.85Z"/><path class="cls-18" d="M482.41,126.62,477.75,133l-.91-.67C477.21,125.7,477.21,125.7,482.41,126.62Z"/><path class="cls-21" d="M481.15,142.52c-3.57.64-4.46-.61-3.88-2.72.3-1.05,1.43-1.87,2.19-2.8Z"/><path class="cls-20" d="M491.36,241.77v-9.61c3.18.72,6.19,1,8.77,2.22.74.35.85,4.58.22,4.88C497.76,240.5,494.77,240.91,491.36,241.77Z"/><path class="cls-20" d="M491.4,230.49v-8.06c2.57.59,5,.79,6.94,1.77.62.3.74,3.64.16,4C496.56,229.28,494.2,229.66,491.4,230.49Z"/><path class="cls-20" d="M828.23,222.07c3,1,5.76,1.51,8,2.79.68.39.75,3.87.08,4.27-2.24,1.37-4.93,2-8.11,3.12Z"/><path class="cls-20" d="M715.71,222.18c3.09.84,5.91,1.16,8.16,2.46.76.44.74,4.47,0,4.91-2.25,1.29-5.08,1.59-8.12,2.4Z"/><path class="cls-27" d="M692.32,225.4l3.33,9.13h-7.39l3.13-9.1Z"/><path class="cls-27" d="M526.9,234.52h-7.39c1.11-3.21,2.11-6.15,3.12-9.09l.93,0C524.62,228.29,525.68,231.17,526.9,234.52Z"/><path class="cls-26" d="M622.33,234.53h-7.4l3.29-9.08.9-.08C620.14,228.26,621.15,231.14,622.33,234.53Z"/><polygon class="cls-9" points="620.07 95.42 619.83 95.49 619.85 95.3 620.07 95.42"/><path class="cls-10" d="M805.58,139.26l-.46.28.32-.43Z"/><path class="cls-8" d="M665.29,139.21l-.39.32.33-.38Z"/><path class="cls-8" d="M897.79,139.21l-.39.33.33-.39Z"/><path class="cls-9" d="M711.74,116l.79-.79Z"/><path class="cls-9" d="M710.36,113.08l-.69,1.54-.43-.36,1-1.35Z"/></g></g></svg>